<svg width="45" height="45" viewBox="0 0 45 45" fill="none" xmlns="http://www.w3.org/2000/svg">
<path d="M29.7028 22.7053C32.4718 24.0141 34.8328 26.0513 36.5331 28.5987C38.2333 31.1461 39.2089 34.108 39.3553 37.1672C39.3746 37.4474 39.3377 37.7287 39.2469 37.9946C39.156 38.2604 39.0129 38.5054 38.8261 38.7151C38.6392 38.9249 38.4123 39.0952 38.1588 39.2162C37.9052 39.3371 37.63 39.4061 37.3494 39.4192C37.0688 39.4323 36.7884 39.3892 36.5246 39.2925C36.2609 39.1958 36.0191 39.0473 35.8135 38.8559C35.6079 38.6645 35.4426 38.4339 35.3273 38.1777C35.212 37.9215 35.1491 37.6449 35.1422 37.3641C34.9889 34.1143 33.59 31.0484 31.2359 28.8027C28.8818 26.5571 25.7534 25.3043 22.5 25.3043C19.2466 25.3043 16.1182 26.5571 13.7641 28.8027C11.41 31.0484 10.0111 34.1143 9.85782 37.3641C9.81993 37.9141 9.56816 38.4275 9.15643 38.7942C8.7447 39.161 8.20574 39.3519 7.65496 39.3262C7.10419 39.3005 6.58538 39.0601 6.20965 38.6565C5.83391 38.253 5.63112 37.7184 5.64469 37.1672C5.79055 34.1082 6.76556 31.1464 8.46535 28.599C10.1651 26.0515 12.5257 24.0143 15.2944 22.7053C13.5197 21.2251 12.2441 19.2341 11.6411 17.0032C11.0381 14.7723 11.1369 12.4098 11.9241 10.237C12.7113 8.06428 14.1487 6.18676 16.0407 4.85985C17.9328 3.53295 20.1876 2.82108 22.4986 2.82108C24.8096 2.82108 27.0644 3.53295 28.9565 4.85985C30.8485 6.18676 32.2859 8.06428 33.0731 10.237C33.8603 12.4098 33.9591 14.7723 33.3561 17.0032C32.7531 19.2341 31.4775 21.2251 29.7028 22.7053ZM29.5313 14.0625C29.5313 12.1977 28.7905 10.4093 27.4718 9.09065C26.1532 7.77204 24.3648 7.03125 22.5 7.03125C20.6352 7.03125 18.8468 7.77204 17.5282 9.09065C16.2095 10.4093 15.4688 12.1977 15.4688 14.0625C15.4688 15.9273 16.2095 17.7157 17.5282 19.0343C18.8468 20.353 20.6352 21.0937 22.5 21.0937C24.3648 21.0937 26.1532 20.353 27.4718 19.0343C28.7905 17.7157 29.5313 15.9273 29.5313 14.0625Z" fill="black"/>
<path d="M14.375 42.1875V30.625H30.3125V42.1875M18.125 34.375H25.9375" stroke="black" stroke-width="3"/>
</svg>
