<svg width="45" height="45" viewBox="0 0 45 45" fill="none" xmlns="http://www.w3.org/2000/svg">
<path d="M9.84375 2.8125C10.2167 2.8125 10.5744 2.96066 10.8381 3.22438C11.1018 3.4881 11.25 3.84579 11.25 4.21875V12.6562C11.2495 13.529 11.5198 14.3805 12.0235 15.0933C12.5272 15.806 13.2396 16.345 14.0625 16.6359V4.21875C14.0625 3.84579 14.2107 3.4881 14.4744 3.22438C14.7381 2.96066 15.0958 2.8125 15.4688 2.8125C15.8417 2.8125 16.1994 2.96066 16.4631 3.22438C16.7268 3.4881 16.875 3.84579 16.875 4.21875V16.6359C17.6979 16.345 18.4103 15.806 18.914 15.0933C19.4177 14.3805 19.688 13.529 19.6875 12.6562V4.21875C19.6875 3.84579 19.8357 3.4881 20.0994 3.22438C20.3631 2.96066 20.7208 2.8125 21.0938 2.8125C21.4667 2.8125 21.8244 2.96066 22.0881 3.22438C22.3518 3.4881 22.5 3.84579 22.5 4.21875V12.6562C22.5003 14.2772 21.9406 15.8484 20.9156 17.1041C19.8906 18.3597 18.4632 19.2227 16.875 19.5469V40.7812C16.875 41.1542 16.7268 41.5119 16.4631 41.7756C16.1994 42.0393 15.8417 42.1875 15.4688 42.1875C15.0958 42.1875 14.7381 42.0393 14.4744 41.7756C14.2107 41.5119 14.0625 41.1542 14.0625 40.7812V19.5469C12.4743 19.2227 11.0469 18.3597 10.0219 17.1041C8.99688 15.8484 8.43717 14.2772 8.4375 12.6562V4.21875C8.4375 3.84579 8.58566 3.4881 8.84938 3.22438C9.1131 2.96066 9.47079 2.8125 9.84375 2.8125ZM29.4722 6.97219C29.9194 6.52219 30.4228 6.17625 30.9375 5.94844V19.6875H28.125V9.84375C28.125 8.89594 28.6144 7.82719 29.4722 6.97219ZM30.9375 22.5V40.7812C30.9375 41.1542 31.0857 41.5119 31.3494 41.7756C31.6131 42.0393 31.9708 42.1875 32.3438 42.1875C32.7167 42.1875 33.0744 42.0393 33.3381 41.7756C33.6018 41.5119 33.75 41.1542 33.75 40.7812V4.21875C33.75 3.84579 33.6018 3.4881 33.3381 3.22438C33.0744 2.96066 32.7167 2.8125 32.3438 2.8125C30.4791 2.8125 28.7353 3.72938 27.4809 4.98094C26.2294 6.23531 25.3125 7.97906 25.3125 9.84375V21.0938C25.3125 21.4667 25.4607 21.8244 25.7244 22.0881C25.9881 22.3518 26.3458 22.5 26.7188 22.5H30.9375Z" fill="black"/>
</svg>
