<svg width="62" height="53" viewBox="0 0 62 53" fill="none" xmlns="http://www.w3.org/2000/svg">
<path fill-rule="evenodd" clip-rule="evenodd" d="M31.0316 44.5408L43.9282 51.2181C44.4371 51.4813 45.0011 51.6205 45.574 51.6243C46.147 51.6281 46.7127 51.4964 47.2251 51.2399L58.1007 45.8021C58.7044 45.5004 59.2122 45.0367 59.5672 44.4627C59.9222 43.8888 60.1104 43.2274 60.1108 42.5525V32.5056C60.1104 31.8308 59.9222 31.1693 59.5672 30.5954C59.2122 30.0215 58.7044 29.5577 58.1007 29.256L45.5712 22.9895L32.9944 29.5032C32.4029 29.8097 31.9069 30.2728 31.5607 30.8421C31.2146 31.4113 31.0315 32.0648 31.0316 32.731V44.5408Z" stroke="black" stroke-width="2" stroke-linecap="round" stroke-linejoin="round"/>
<path fill-rule="evenodd" clip-rule="evenodd" d="M3.91524 45.5549L14.849 51.2181C15.3579 51.4813 15.9219 51.6205 16.4948 51.6243C17.0678 51.6281 17.6335 51.4964 18.1459 51.2399L31.0316 44.7989V32.5056C31.0312 31.8308 30.843 31.1693 30.488 30.5954C30.133 30.0215 29.6252 29.5577 29.0215 29.256L16.492 22.9895L3.91524 29.5032C3.32367 29.8097 2.82772 30.2728 2.48156 30.8421C2.13539 31.4113 1.95234 32.0648 1.95239 32.731V42.3271C1.95234 42.9934 2.13539 43.6468 2.48156 44.216C2.82772 44.7853 3.32367 45.2484 3.91524 45.5549ZM16.492 22.7314L29.3886 29.4087C29.8975 29.6719 30.4615 29.8111 31.0344 29.8149C31.6074 29.8187 32.1731 29.687 32.6855 29.4305L45.5712 22.9895V10.6962C45.5708 10.0214 45.3826 9.35993 45.0276 8.78599C44.6726 8.21206 44.1648 7.74829 43.5611 7.44663L32.6855 2.00882C32.1731 1.75236 31.6074 1.62065 31.0344 1.62444C30.4615 1.62823 29.8975 1.76741 29.3886 2.03063L18.4548 7.6938C17.8633 8.00027 17.3673 8.46343 17.0212 9.03267C16.675 9.60192 16.4919 10.2554 16.492 10.9216V22.7314Z" stroke="black" stroke-width="2" stroke-linecap="round" stroke-linejoin="round"/>
<path d="M17.7497 9.07867L29.4068 14.9054C29.9113 15.1575 30.4676 15.2888 31.0316 15.2888C31.5956 15.2888 32.1519 15.1575 32.6564 14.9054L44.1899 9.14047M24.8486 5.35654L38.3014 12.0847M39.3882 27.1659L52.841 33.8941M10.309 27.1659L23.7618 33.8941M32.2893 30.8881L43.9464 36.7148C44.4509 36.9669 45.0072 37.0982 45.5712 37.0982C46.1352 37.0982 46.6915 36.9669 47.196 36.7148L58.7259 30.9499M3.21008 30.8881L14.8672 36.7148C15.3717 36.9669 15.928 37.0982 16.492 37.0982C17.056 37.0982 17.6123 36.9669 18.1168 36.7148L29.6467 30.9499M31.0316 15.7196V30.2592M45.5712 37.529V50.2512M16.492 37.529V50.2512" stroke="black" stroke-width="2" stroke-linecap="round" stroke-linejoin="round"/>
</svg>
