<svg width="44" height="44" viewBox="0 0 44 44" fill="none" xmlns="http://www.w3.org/2000/svg">
<path d="M29.3333 3.66666C24.2733 3.66666 20.1667 7.77333 20.1667 12.8333C20.1667 17.8933 24.2733 22 29.3333 22C34.3933 22 38.5 17.8933 38.5 12.8333C38.5 7.77333 34.3933 3.66666 29.3333 3.66666ZM29.3333 18.3333C26.29 18.3333 23.8333 15.8767 23.8333 12.8333C23.8333 9.79 26.29 7.33333 29.3333 7.33333C32.3767 7.33333 34.8333 9.79 34.8333 12.8333C34.8333 15.8767 32.3767 18.3333 29.3333 18.3333ZM34.8333 29.3333H31.1667C31.1667 27.1333 29.7917 25.1533 27.7383 24.3833L16.445 20.1667H1.83334V40.3333H12.8333V37.6933L25.6667 41.25L40.3333 36.6667V34.8333C40.3333 31.79 37.8767 29.3333 34.8333 29.3333ZM9.16668 36.6667H5.50001V23.8333H9.16668V36.6667ZM25.6117 37.4183L12.8333 33.9167V23.8333H15.785L26.455 27.8117C27.0783 28.05 27.5 28.655 27.5 29.3333C27.5 29.3333 23.8333 29.2417 23.2833 29.0583L18.92 27.61L17.765 31.0933L22.1283 32.5417C23.0633 32.8533 24.035 33 25.025 33H34.8333C35.5483 33 36.19 33.44 36.4833 34.045L25.6117 37.4183Z" fill="black"/>
</svg>
