<svg width="41" height="40" viewBox="0 0 41 40" fill="none" xmlns="http://www.w3.org/2000/svg">
<path d="M16.7765 6.25H9.22352C8.5558 6.25 7.91543 6.51339 7.44328 6.98223C6.97113 7.45107 6.70588 8.08696 6.70588 8.75V16.25C6.70588 16.913 6.97113 17.5489 7.44328 18.0178C7.91543 18.4866 8.5558 18.75 9.22352 18.75H16.7765C17.4442 18.75 18.0846 18.4866 18.5567 18.0178C19.0289 17.5489 19.2941 16.913 19.2941 16.25V8.75C19.2941 8.08696 19.0289 7.45107 18.5567 6.98223C18.0846 6.51339 17.4442 6.25 16.7765 6.25ZM16.7765 16.25H9.22352V8.75H16.7765V16.25ZM16.7765 21.25H9.22352C8.5558 21.25 7.91543 21.5134 7.44328 21.9822C6.97113 22.4511 6.70588 23.087 6.70588 23.75V31.25C6.70588 31.913 6.97113 32.5489 7.44328 33.0178C7.91543 33.4866 8.5558 33.75 9.22352 33.75H16.7765C17.4442 33.75 18.0846 33.4866 18.5567 33.0178C19.0289 32.5489 19.2941 31.913 19.2941 31.25V23.75C19.2941 23.087 19.0289 22.4511 18.5567 21.9822C18.0846 21.5134 17.4442 21.25 16.7765 21.25ZM16.7765 31.25H9.22352V23.75H16.7765V31.25ZM31.8823 6.25H24.3294C23.6617 6.25 23.0213 6.51339 22.5492 6.98223C22.077 7.45107 21.8118 8.08696 21.8118 8.75V16.25C21.8118 16.913 22.077 17.5489 22.5492 18.0178C23.0213 18.4866 23.6617 18.75 24.3294 18.75H31.8823C32.5501 18.75 33.1904 18.4866 33.6626 18.0178C34.1347 17.5489 34.4 16.913 34.4 16.25V8.75C34.4 8.08696 34.1347 7.45107 33.6626 6.98223C33.1904 6.51339 32.5501 6.25 31.8823 6.25ZM31.8823 16.25H24.3294V8.75H31.8823V16.25ZM21.8118 27.5V22.5C21.8118 22.1685 21.9444 21.8505 22.1805 21.6161C22.4165 21.3817 22.7367 21.25 23.0706 21.25C23.4044 21.25 23.7246 21.3817 23.9607 21.6161C24.1968 21.8505 24.3294 22.1685 24.3294 22.5V27.5C24.3294 27.8315 24.1968 28.1495 23.9607 28.3839C23.7246 28.6183 23.4044 28.75 23.0706 28.75C22.7367 28.75 22.4165 28.6183 22.1805 28.3839C21.9444 28.1495 21.8118 27.8315 21.8118 27.5ZM34.4 25C34.4 25.3315 34.2674 25.6495 34.0313 25.8839C33.7952 26.1183 33.475 26.25 33.1412 26.25H29.3647V32.5C29.3647 32.8315 29.2321 33.1495 28.996 33.3839C28.7599 33.6183 28.4397 33.75 28.1059 33.75H23.0706C22.7367 33.75 22.4165 33.6183 22.1805 33.3839C21.9444 33.1495 21.8118 32.8315 21.8118 32.5C21.8118 32.1685 21.9444 31.8505 22.1805 31.6161C22.4165 31.3817 22.7367 31.25 23.0706 31.25H26.8471V22.5C26.8471 22.1685 26.9797 21.8505 27.2158 21.6161C27.4518 21.3817 27.772 21.25 28.1059 21.25C28.4397 21.25 28.7599 21.3817 28.996 21.6161C29.2321 21.8505 29.3647 22.1685 29.3647 22.5V23.75H33.1412C33.475 23.75 33.7952 23.8817 34.0313 24.1161C34.2674 24.3505 34.4 24.6685 34.4 25ZM34.4 30V32.5C34.4 32.8315 34.2674 33.1495 34.0313 33.3839C33.7952 33.6183 33.475 33.75 33.1412 33.75C32.8073 33.75 32.4871 33.6183 32.251 33.3839C32.015 33.1495 31.8823 32.8315 31.8823 32.5V30C31.8823 29.6685 32.015 29.3505 32.251 29.1161C32.4871 28.8817 32.8073 28.75 33.1412 28.75C33.475 28.75 33.7952 28.8817 34.0313 29.1161C34.2674 29.3505 34.4 29.6685 34.4 30Z" fill="black"/>
</svg>
