<svg width="45" height="45" viewBox="0 0 45 45" fill="none" xmlns="http://www.w3.org/2000/svg">
<path d="M30 3.75C24.825 3.75 20.625 7.95 20.625 13.125C20.625 18.3 24.825 22.5 30 22.5C35.175 22.5 39.375 18.3 39.375 13.125C39.375 7.95 35.175 3.75 30 3.75ZM30 18.75C26.8875 18.75 24.375 16.2375 24.375 13.125C24.375 10.0125 26.8875 7.5 30 7.5C33.1125 7.5 35.625 10.0125 35.625 13.125C35.625 16.2375 33.1125 18.75 30 18.75ZM35.625 30H31.875C31.875 27.75 30.4688 25.725 28.3687 24.9375L16.8188 20.625H1.875V41.25H13.125V38.55L26.25 42.1875L41.25 37.5V35.625C41.25 32.5125 38.7375 30 35.625 30ZM9.375 37.5H5.625V24.375H9.375V37.5ZM26.1938 38.2687L13.125 34.6875V24.375H16.1437L27.0563 28.4438C27.6938 28.6875 28.125 29.3062 28.125 30C28.125 30 24.375 29.9062 23.8125 29.7188L19.35 28.2375L18.1687 31.8L22.6312 33.2812C23.5875 33.6 24.5812 33.75 25.5938 33.75H35.625C36.3563 33.75 37.0125 34.2 37.3125 34.8187L26.1938 38.2687Z" fill="black"/>
<path d="M29.4545 9.40909V13.9091H31.9091" stroke="black"/>
</svg>
