<svg width="37" height="47" viewBox="0 0 37 47" fill="none" xmlns="http://www.w3.org/2000/svg">
<path d="M11.759 26.0241H25.3133M18.8072 20.0602L16.7795 18.8774C13.9853 17.2474 10.5574 17.137 7.66405 18.5836V18.5836C5.10707 19.8621 3.25429 22.2153 2.61146 25.0009L2.57997 25.1374C2.19989 26.7844 2.25543 28.502 2.74114 30.1211V30.1211C3.31728 32.0416 4.47268 33.7371 6.04929 34.9759L18.8072 45L31.6165 34.5628C32.8163 33.5852 33.7474 32.3183 34.3222 30.8814V30.8814C35.1544 28.8007 35.1911 26.4864 34.4253 24.3804L34.0256 23.2811C33.6427 22.2283 33.0582 21.2603 32.3046 20.4314V20.4314C29.7606 17.633 25.6884 16.8221 22.2664 18.4324L18.8072 20.0602Z" stroke="black" stroke-width="3"/>
<path d="M23.1446 13.012L23.4072 12.7494C25.9091 10.2476 25.7813 6.15356 23.1282 3.81262C20.6994 1.66955 17.0229 1.78433 14.7325 4.07473L14.4699 4.33735C12.0744 6.7328 12.0744 10.6166 14.4699 13.0121C16.8653 15.4075 20.7491 15.4075 23.1446 13.012Z" fill="black"/>
</svg>
